<svg width="512" height="512" viewBox="0 0 512 512" xmlns="http://www.w3.org/2000/svg">
  <defs><linearGradient id="dropletGrad" x1="0%" y1="0%" x2="100%" y2="100%"><stop offset="0%" style="stop-color:#b8e8ff;stop-opacity:1" /><stop offset="100%" style="stop-color:#00a8d4;stop-opacity:1" /></linearGradient></defs>
  <rect width="512" height="512" rx="100" fill="#e0f7ff"/>
  <path d="M256,440 Q140,440 140,300 Q140,160 256,70 Q372,160 372,300 Q372,440 256,440 Z" fill="url(#dropletGrad)"/>
  <g transform="translate(256, 310) scale(3.5)">
    <ellipse cx="0" cy="15" rx="22" ry="24" fill="#1a1a1a"/><ellipse cx="0" cy="18" rx="16" ry="16" fill="#f5f5f5"/>
    <circle cx="0" cy="-10" r="18" fill="#1a1a1a"/><ellipse cx="0" cy="-8" rx="13" ry="12" fill="#f5f5f5"/>
    <rect x="-12" y="-13" width="24" height="4" rx="1" fill="#333"/><circle cx="-8" cy="-10" r="5" fill="#333"/><circle cx="8" cy="-10" r="5" fill="#333"/>
    <path d="M-10,-24 L-8,-32 L-2,-26 L4,-32 L6,-24 Z" fill="#ffd700" stroke="#b8860b" stroke-width="1"/><ellipse cx="0" cy="-3" rx="4" ry="2" fill="#ffa500"/>
  </g>
</svg>
